<svg id="Layer_1" data-name="Layer 1" xmlns="http://www.w3.org/2000/svg" xmlns:xlink="http://www.w3.org/1999/xlink" width="13.8mm" height="72.44mm" viewBox="0 0 39.11 205.33"><defs><style>.cls-1{fill:url(#linear-gradient);}</style><linearGradient id="linear-gradient" x1="102.19" y1="595.61" x2="245.51" y2="595.61" gradientTransform="translate(316.62 -449.09) rotate(46.46)" gradientUnits="userSpaceOnUse"><stop offset="0" stop-color="#e2e874"/><stop offset="0.1" stop-color="#e1eb70"/><stop offset="0.24" stop-color="#fcf9f4"/><stop offset="1" stop-color="#fcf9f4"/></linearGradient></defs><title>beansprout</title><path class="cls-1" d="M5.82,20.14A184.18,184.18,0,0,1,17.75,64.06c3.28,24.15,6,27.15,7,44.87s.42,29.62-2.64,48.78-3.51,24.61-2.6,31c0,0-9.26,10.89-6.67,9.88s7.9-4,9.2-8.74,13.06-62.09,11.35-76.26-9.7-76.9-22-95.28c0,0-1.85,1.13-1.77-1.86s2.66.39,2.66.39,1.56,1.86,9.32-4.68.82,5.47-.38,6.4S25,18,26.21,13.06s2.75-7-5.79-7.61-7-3.83-12,1.82S5.82,20.14,5.82,20.14Z"/></svg>